<svg id="Yokai Ecologist" xmlns="http://www.w3.org/2000/svg" xmlns:xlink="http://www.w3.org/1999/xlink" width="420" height="420" viewBox="0 0 420 420"> <defs> <radialGradient id="radial-gradient" cx="210.8" cy="901.6" r="210" gradientTransform="translate(0 -692)" gradientUnits="userSpaceOnUse"> <stop offset="0" stop-color="#4195ad"/> <stop offset="1" stop-color="#2b6375"/> </radialGradient> </defs> <g id="Background"> <g id="Surprising"> <path d="M390.8,419.6H30.8a30,30,0,0,1-30-30V29.6a30,30,0,0,1,30-30h360a30,30,0,0,1,30,30v360A30,30,0,0,1,390.8,419.6Z" transform="translate(-0.8 0.4)" fill="url(#radial-gradient)"/> <g> <path id="Main_Spin" d="M210.4,63.4c-192.6,3.5-192.6,290,0,293.4C403,353.3,403,66.8,210.4,63.4ZM341.2,237.6c-.6,2.9-1.4,5.7-2.2,8.6-43.6-13.6-80.9,37.8-54.4,75.1a165.89,165.89,0,0,1-15.4,8.8c-33.9-50.6,14.8-117.8,73.3-101.2C342.1,231.8,341.8,234.7,341.2,237.6Zm-9.4,28a133.92,133.92,0,0,1-33.3,44.7c-15.9-23.3,7.6-55.7,34.6-47.4C332.7,263.8,332.2,264.7,331.8,265.6Zm1.1-55.9c-67.5-7.2-115.5,69.4-79.6,126.9a153.72,153.72,0,0,1-17.7,4.7c-40.3-73.8,24.6-163.5,107.2-148a158.73,158.73,0,0,1,1.1,18.2A100.86,100.86,0,0,0,332.9,209.7ZM88.2,264c28.7-11.9,56,24,36.3,48.4A136.37,136.37,0,0,1,88.2,264Zm56.5,48.8c17.8-38.8-23.4-81.6-62.6-65.5a114.59,114.59,0,0,1-3.7-17.4c60-20.6,112.7,49.4,76,101.5a106.49,106.49,0,0,1-15.6-8.5A56.72,56.72,0,0,0,144.7,312.8Zm29.9,17.7c32.6-64-28.9-138.2-97.7-118-.3-6.1.4-12.4.9-18.5,85-18.6,151.7,71.7,110.8,147.8a158.08,158.08,0,0,1-18.1-4.1A63.69,63.69,0,0,0,174.6,330.5ZM337.4,168.7a117.68,117.68,0,0,0-21.4-.2c-43.1-75.9-167.4-75.9-210.7-.2a108.79,108.79,0,0,0-22.1.9C118.6,47.8,301.5,47.4,337.4,168.7ZM281.5,176q-4.5,1.65-8.7,3.6c-29.6-36.1-93.1-36.7-123.4-1.2a127.1,127.1,0,0,0-18-6.1c36.6-50.4,122.9-50,159,.7C287.3,173.9,284.4,174.9,281.5,176ZM250,193.2c-2.4,1.8-4.7,3.6-7,5.6-16.4-15.6-46-16.4-63.2-1.5a151.06,151.06,0,0,0-14.7-10.5c23.9-24.1,69.1-23.5,92.2,1.3C254.8,189.7,252.4,191.4,250,193.2Zm-37.7,46.1a123,123,0,0,0-19.7-29.4c10.7-8.1,27.9-7.3,37.9,1.6A120.16,120.16,0,0,0,212.3,239.3Z" transform="translate(-0.8 0.4)" fill="#235261"><animateTransform attributeName="transform" begin="0s" dur="20s" type="rotate" from="-360 210 210" to="0 210 210" repeatCount="indefinite" /> </path> <g id="Spin_Inverse"> <circle cx="209.6" cy="210.5" r="163" fill="none" stroke="#204b59" stroke-width="7" stroke-dasharray="22.26 22.26"><animateTransform attributeName="transform" begin="0s" dur="20s" type="rotate" from="360 210 210" to="0 210 210" repeatCount="indefinite" /> </circle> </g> <g id="Spin"> <circle cx="209.6" cy="210.5" r="183.8" fill="none" stroke="#204b59" stroke-width="7" stroke-dasharray="22.2 22.2"> </circle><animateTransform attributeName="transform" begin="0s" dur="20s" type="rotate" from="-360 210 210" to="0 210 210" repeatCount="indefinite" /> </g> </g> </g> </g> <g id="Body_4"> <g id="Yokai"> <path id="Neck" d="M175.8,276.8c.8,10,1.1,20.2-.7,30.4a9.31,9.31,0,0,1-4.7,6.3c-16.4,8.9-41.4,17.2-70.2,25.2-8.1,2.3-9.5,12.4-2.1,16.4,71.9,38.5,146.3,42.5,224.4,7,7.2-3.3,7.3-12.7.1-16-22.3-10.3-43.5-23.1-54.9-29.9a11.17,11.17,0,0,1-5.1-8.3,125.18,125.18,0,0,1-.1-22.2,164.09,164.09,0,0,1,4.6-29.3" transform="translate(-0.8 0.4)" fill="#1dc7f0" stroke="#000" stroke-linecap="round" stroke-miterlimit="10" stroke-width="3" fill-rule="evenodd"/> <path id="Ombre" d="M178.1,279s24.2,35,41,30.6S260.8,288,260.8,288c1.2-9.1,1.9-17.1,3.7-26-4.8,4.9-10.4,9.2-18.8,14.5a108.88,108.88,0,0,1-29.8,13.3Z" transform="translate(-0.8 0.4)" fill="#696969" fill-rule="evenodd" opacity="0.65"/> <path id="Head" d="M313.9,170c-.6-.8-12.2,8.3-12.2,8.3.3-4.9,11.8-53.1-17.3-86-15.9-17.4-42.2-27.1-69.9-27.7C190,64.1,165.8,75.5,152.9,89c-33.5,35-20.1,98.2-20.1,98.2.6,10.9,9.1,63.4,21.3,74.6,0,0,33.7,25.7,42.4,30.6a22.85,22.85,0,0,0,17.1,2.3c16-5.9,47.7-25.9,56.8-37.6l.2-.2c6.9-9.1,3.9-5.8,11.2-14.8a4.85,4.85,0,0,1,4.8-1.8c4.1.8,11.7,1.3,13.3-7,2.4-11.5,2.6-25.1,8.6-35.5C311.7,192,315.9,185.8,313.9,170Z" transform="translate(-0.8 0.4)" fill="#1dc7f0" stroke="#000" stroke-linecap="round" stroke-miterlimit="10" stroke-width="3" fill-rule="evenodd"/> <g id="Ear"> <path d="M141.9,236c.1,1.1-8.3,3-9.7-12.1s-7.3-31-12.6-48c-3.8-12.2,12.2,6.7,12.2,6.7" transform="translate(-0.8 0.4)" fill="#1dc7f0" fill-rule="evenodd"/> <path d="M141.9,236a.66.66,0,0,1-.4.5,4.88,4.88,0,0,1-.7.3,7.08,7.08,0,0,1-1.4.1,6.3,6.3,0,0,1-2.7-1,10.91,10.91,0,0,1-3.6-4.6,21.62,21.62,0,0,1-1.6-5.5c-.3-1.9-.5-3.7-.8-5.5-.6-3.6-1.4-7.2-2.3-10.8s-1.9-7.1-3-10.6-2.1-7.1-3.2-10.6-2.2-7.1-3.2-10.7c-.2-.9-.5-1.8-.7-2.8a7.77,7.77,0,0,1-.2-1.6,3.75,3.75,0,0,1,.1-1,1.91,1.91,0,0,1,.9-1.2,1.74,1.74,0,0,1,1.4-.1l.9.3a14.8,14.8,0,0,1,1.3.8,20,20,0,0,1,2.2,1.9,84.08,84.08,0,0,1,7.2,8.6c-2.7-2.6-5.3-5.2-8.2-7.5a17.68,17.68,0,0,0-2.2-1.6c-.4-.2-.7-.4-1.1-.6a.9.9,0,0,0-.5-.1h0l.1-.1v.4a5,5,0,0,0,.2,1.2c.2.8.5,1.7.8,2.6l3.6,10.5c1.2,3.5,2.3,7.1,3.4,10.6a125.61,125.61,0,0,1,4.7,21.9c.2,1.9.3,3.8.5,5.6a23.78,23.78,0,0,0,1.1,5.3,9.91,9.91,0,0,0,2.7,4.5,5.1,5.1,0,0,0,2.3,1.2,2.88,2.88,0,0,0,1.3.1c.2,0,.4-.1.7-.1C141.6,236.3,141.9,236.2,141.9,236Z" transform="translate(-0.8 0.4)"/> </g> <g id="Ear2"> <path d="M305,175.7a10.65,10.65,0,0,1-2.3,3.5c-.9.8-1.7,1.4-2.6,2.2-1.8,1.7-3.9,3.2-5.5,5.2a53.07,53.07,0,0,0-4.2,6.3c-.6,1-1.3,2.2-1.9,3.3l-1.7,3.4-.2-.1,1.4-3.6c.5-1.1.9-2.4,1.5-3.5a50.9,50.9,0,0,1,3.8-6.8,22.4,22.4,0,0,1,5.1-5.9,29.22,29.22,0,0,1,3.2-2.1,12.65,12.65,0,0,0,3.1-2Z" transform="translate(-0.8 0.4)"/> </g> <g id="Buste"> <path d="M222.2,339.7c4.6-.4,9.3-.6,13.9-.9l14-.6c4.7-.1,9.3-.3,14-.4l7-.1h7c-2.3.2-4.6.3-7,.5l-7,.4-14,.6c-4.7.1-9.3.3-14,.4C231.6,339.7,226.9,339.8,222.2,339.7Z" transform="translate(-0.8 0.4)" fill="#2b232b"/> <path d="M142.3,337.2c4.3,0,8.4.1,12.6.2s8.4.3,12.6.5,8.4.4,12.6.7l6.4.4c2.1.2,4.2.3,6.4.5-2.1,0-4.2,0-6.4-.1l-6.4-.2c-4.2-.1-8.4-.3-12.6-.5s-8.4-.4-12.6-.7C150.8,338,146.7,337.6,142.3,337.2Z" transform="translate(-0.8 0.4)" fill="#2b232b"/> <path d="M199.3,329.2l1.6,3c.5,1,1,2,1.6,3a16.09,16.09,0,0,0,1.7,2.8c.2.2.3.4.5.6s.3.2.3.2a3.57,3.57,0,0,0,1.3-.6c1.8-1.3,3.4-2.8,5.1-4.3.8-.7,1.7-1.6,2.5-2.3l2.5-2.3a53.67,53.67,0,0,1-4.4,5.1,32.13,32.13,0,0,1-5.1,4.6,2.51,2.51,0,0,1-.7.4,2.37,2.37,0,0,1-1,.3,1.45,1.45,0,0,1-.7-.2c-.1-.1-.3-.2-.4-.3s-.4-.5-.6-.7c-.6-.9-1.1-2-1.7-3A59,59,0,0,1,199.3,329.2Z" transform="translate(-0.8 0.4)" fill="#2b232b"/> <path d="M199.3,329.2s3.5,9.3,5.3,10.1,11.6-10,11.6-10C209.9,330.9,204,331.1,199.3,329.2Z" transform="translate(-0.8 0.4)" fill-rule="evenodd" opacity="0.19" style="isolation: isolate"/> </g> </g> </g> <g id="Marks"> <g id="Tomoe"> <path d="M289,339.8h0a5,5,0,1,0,0,7.3l.4-.4v.1c2.7,1.9,3.6,5.8,3.6,5.8C293.9,343.3,289,339.8,289,339.8Zm-2.2,5a1.7,1.7,0,1,1,.1-2.4A1.72,1.72,0,0,1,286.8,344.8Z" transform="translate(-0.8 0.4)" fill="#22608a" fill-rule="evenodd"/> <path d="M275.1,347.9h0a5,5,0,1,0-2.5,6.6c.1-.1.2-.1.4-.2,1.8,2.7,1.5,6.6,1.5,6.6C277.8,353.8,275.8,349.2,275.1,347.9Zm-3.9,3.5a1.62,1.62,0,0,1-2.2-.8,1.66,1.66,0,1,1,2.2.8Z" transform="translate(-0.8 0.4)" fill="#22608a" fill-rule="evenodd"/> <path d="M136.6,339.1a5.08,5.08,0,0,0-6.9,0h0s-4.9,3.5-4,12.8c0,0,.9-3.9,3.6-5.8V346c.1.1.2.3.4.4a5,5,0,1,0,6.9-7.3Zm-2.2,4.9a2,2,0,0,1-2.4.1,1.7,1.7,0,1,1,2.4-.1Z" transform="translate(-0.8 0.4)" fill="#22608a" fill-rule="evenodd"/> <path d="M150.5,344.6a5.14,5.14,0,0,0-6.7,2.5c0,.1-.1.1-.1.2-.7,1.4-2.5,6,.7,12.9,0,0-.3-3.9,1.5-6.6.1.1.2.1.4.2a5.06,5.06,0,0,0,4.2-9.2Zm-.7,5.3a1.66,1.66,0,1,1-.8-2.2A1.65,1.65,0,0,1,149.8,349.9Z" transform="translate(-0.8 0.4)" fill="#22608a" fill-rule="evenodd"/> <path d="M226.6,355.4a5.13,5.13,0,0,0-6.4-2.9,5.06,5.06,0,0,0,3.5,9.5c.1-.1.3-.1.4-.2,1.6,2.9,1,6.8,1,6.8C229.4,360.9,227,356,226.6,355.4Zm-4,3.5a2,2,0,0,1-2.2-1,1.71,1.71,0,1,1,2.2,1Z" transform="translate(-0.8 0.4)" fill="#22608a" fill-rule="evenodd"/> <path d="M190.2,351.9a4.94,4.94,0,0,0-6.5,2.5h0s-3.3,5,.8,13.4c0,0-.4-4,1.4-6.8h0a.76.76,0,0,0,.4.2,5,5,0,0,0,3.9-9.3Zm-.6,5.3c-.2,1-1.2,1.3-2.2.9a1.68,1.68,0,1,1,2.2-.9Z" transform="translate(-0.8 0.4)" fill="#22608a" fill-rule="evenodd"/> </g> </g> <g id="Earrings"> <g id="Circle"> <ellipse cx="136.8" cy="229.5" rx="2.5" ry="3" fill="#22608a"/> <ellipse cx="290.8" cy="232.2" rx="3.4" ry="3.5" fill="#22608a"/> </g> </g> <g id="Nose" > <g id="Akuma"> <path d="M191.6,224.5c6.1,1,12.2,1.7,19.8.4l-8.9,6.8a1.5,1.5,0,0,1-1.8,0Z" transform="translate(-0.8 0.4)" fill="#22608a" stroke="#22608a" stroke-miterlimit="10" opacity="0.5" style="isolation: isolate"/> <path d="M196.4,229.2c-.4.3-2.1-.9-4.1-2.5s-3-2.7-2.6-2.9,2.5,0,4.2,1.8C195.4,227.2,196.8,228.8,196.4,229.2Z" transform="translate(-0.8 0.4)" stroke="#000" stroke-miterlimit="10" stroke-width="0.75"/> <path d="M206.5,228.7c.3.4,2.2-.3,4.2-1.7s3.5-2,3.2-2.4-2.5-.7-4.5.7C207.4,226.9,206.1,228.2,206.5,228.7Z" transform="translate(-0.8 0.4)" stroke="#000" stroke-miterlimit="10" stroke-width="0.75"/> </g> </g> <g id="Eyes"> <g id="No_Fill" data-name="No Fill"> <g> <path d="M219.1,197.3s3.1-22.5,37.9-15.5C257.1,181.7,261,208.8,219.1,197.3Z" transform="translate(-0.8 0.4)" fill="#fff"/> <path d="M219,197.36c.67-8,7.53-14.47,15.07-16.38s15.38-.68,23,.36l-.42.12c0-.07.53-.25.71.07a.71.71,0,0,1,.09.17,1.43,1.43,0,0,1,0,.22c1.45,9.35-4.58,17.14-13.75,18.69-8.42,1.47-16.86-.42-24.74-3.25Zm.16-.12c7.81,1.34,16.36,2.84,24.16,1.27,8.47-1.44,13.71-8,13.21-16.53v0h0s-.05-.08.08.15.74.12.7,0l-.42.12c-13.85-3.75-33-.38-37.73,15Z" transform="translate(-0.8 0.4)" fill="#102e42"/> </g> <g> <path d="M183.9,197.3s-3.1-22.5-37.9-15.5C146,181.7,142,208.8,183.9,197.3Z" transform="translate(-0.8 0.4)" fill="#fff"/> <path d="M183.82,197.24c-3.54-11.47-15.2-16.26-26.47-16.41a47.09,47.09,0,0,0-11.26,1.43l-.56-.46c-.78-.07,1.07.42.93.11,0,0,0,0,0,0v0c-.2,21,22.89,18,37.36,15.33Zm.16.12c-7.87,2.82-16.3,4.72-24.72,3.25-9.22-1.56-15.11-9.36-13.76-18.67v-.1s0-.09,0-.12c-.14-.32,1.72.16.94.08l-.56-.46c7.61-1,15.37-2.21,23-.36s14.41,8.38,15.08,16.38Z" transform="translate(-0.8 0.4)" fill="#102e42"/> </g> </g> <g id="Shadow" opacity="0.43"> <path d="M218.3,191.6s4.6-10.8,19.9-13.6c0,0-12.2,0-16.1,2.8C218.9,183.8,218.3,191.6,218.3,191.6Z" transform="translate(-0.8 0.4)" opacity="0.5" style="isolation: isolate"/> </g> <g id="Shadow-2" opacity="0.43"> <path d="M184.9,191.3s-4.8-10.6-20.1-13.4c0,0,12.4-.2,16.3,2.6C184.4,183.6,184.9,191.3,184.9,191.3Z" transform="translate(-0.8 0.4)" opacity="0.5" style="isolation: isolate"/> </g> </g> <g id="Mouth"> <g id="Akuma"> <path d="M278,243.1c-8.1,1.5-18.1,4.2-26.3,5.5a183.37,183.37,0,0,1-24.6,2.8l.3-.2-5.6,10.9-.4.7-.4-.7-5.3-10.4.4.2c-4.8.3-9.6.6-14.4.5a116.32,116.32,0,0,1-14.4-1.1l.4-.2L182,262.4l-.3.5-.3-.5-5.9-11.6.2.1-7.6-.6a66.26,66.26,0,0,1-7.6-1.1c-1.3-.2-2.5-.5-3.8-.8s-2.5-.6-3.8-1c-2.4-.7-4.9-1.5-7.3-2.4v-.1c2.5.4,5,1,7.5,1.6,1.3.2,2.5.5,3.8.8l3.8.8c2.5.5,5,1.1,7.5,1.6a38.44,38.44,0,0,0,7.6.8h.1l.1.1,6.1,11.6h-.5l5.5-11.3.1-.2h.3a137.42,137.42,0,0,0,14.3,1c4.8,0,9.6-.2,14.4-.5h.3l.1.2,5.3,10.4h-.7l5.7-10.8.1-.2h.2a183.41,183.41,0,0,0,24.5-2.6c8-1.1,16.2-2.7,24.3-4Z" transform="translate(-0.8 0.4)"/> </g> </g> <g id="Accessory"> <g id="Small_Horn"> <g> <path d="M257.5,100.7s10.6-.7,16.6-12.7c0,0,6.3,10.6-5.2,25.1C263.4,110.3,259.4,106.1,257.5,100.7Z" transform="translate(-0.8 0.4)" fill="#1dc7f0" stroke="#000" stroke-miterlimit="10" fill-rule="evenodd"/> <path d="M258.2,101.1a13.63,13.63,0,0,0,10.6,11.4" transform="translate(-0.8 0.4)" fill="#1dc7f0" stroke="#1dc7f0" stroke-miterlimit="10" fill-rule="evenodd"/> </g> <g> <path d="M159.4,101.6s-10.6-.7-16.6-12.7c0,0-6.3,10.6,5.2,25.1C153.4,111.2,157.5,107,159.4,101.6Z" transform="translate(-0.8 0.4)" fill="#1dc7f0" stroke="#000" stroke-miterlimit="10" fill-rule="evenodd"/> <path d="M158.9,102c0,.1-1.5,9.4-10.7,11.3" transform="translate(-0.8 0.4)" fill="#1dc7f0" stroke="#1dc7f0" stroke-miterlimit="10" fill-rule="evenodd"/> </g> </g> </g> <path d="M198.85,121.22a3.83,3.83,0,0,1,3.4,0l9.88,5.4a1.73,1.73,0,0,1,1,1.28h0V155a1.69,1.69,0,0,1-1,1.41l-9.88,5.4a3.83,3.83,0,0,1-3.4,0l-9.88-5.4A1.68,1.68,0,0,1,188,155V127.9h0a1.64,1.64,0,0,1,.94-1.28ZM211.54,143l-9.29,5.08a3.83,3.83,0,0,1-3.4,0l-9.27-5.07V155l9.27,5a4.12,4.12,0,0,0,1.59.61h.11a4,4,0,0,0,1.64-.56l9.35-5.14Zm-25.12,11.41a5.08,5.08,0,0,0,.35,2.21,2.82,2.82,0,0,0,1,1.07l0,0,.4.27.18.11.56.35-.8,1.38-.63-.39-.1-.07-.48-.31c-1.5-1.05-2.05-2.19-2.07-4.57v-.07Zm13.35-18.68a.72.72,0,0,0-.2.09l-9.87,5.4h0l9.87,5.4.2.09Zm1.56,0v11l.2-.09,9.87-5.4,0,0h0l-9.87-5.4A.72.72,0,0,0,201.33,135.77Zm10.21-5.94-8.86,4.84,8.86,4.84Zm-22,0v9.66l8.83-4.83Zm11.95-7.2a2.39,2.39,0,0,0-2,0L189.7,128l0,0h0l9.87,5.4a2.39,2.39,0,0,0,2,0l9.87-5.4h0Zm11.47.59.63.4.1.06.48.32c1.5,1,2.06,2.18,2.07,4.56v.07h-1.56a5,5,0,0,0-.35-2.2,2.77,2.77,0,0,0-1-1.08l0,0-.4-.26-.18-.12-.56-.35Z" transform="translate(-0.8 0.4)" fill="#fff"/> </svg> 